<svg width="65" height="60" viewBox="0 0 65 60" fill="none" xmlns="http://www.w3.org/2000/svg">
<path d="M0.5 8C0.5 3.58172 4.08172 0 8.5 0H40.5C53.7548 0 64.5 10.7452 64.5 24V52C64.5 56.4183 60.9183 60 56.5 60H24.5C11.2452 60 0.5 49.2548 0.5 36V8Z" fill="url(#paint0_linear_572_1527)"/>
<path d="M31.4525 44.32C30.6525 44.32 29.9858 44.0533 29.4525 43.52C28.9192 42.96 28.6525 42.28 28.6525 41.48C28.6525 40.7067 28.9192 40.0533 29.4525 39.52C29.9858 38.96 30.6525 38.68 31.4525 38.68C32.2258 38.68 32.8792 38.96 33.4125 39.52C33.9725 40.0533 34.2525 40.7067 34.2525 41.48C34.2525 42.28 33.9725 42.96 33.4125 43.52C32.8792 44.0533 32.2258 44.32 31.4525 44.32ZM33.4125 35H29.2525V29.2C31.0925 28.8533 32.7192 28.1733 34.1325 27.16C35.5458 26.1467 36.2525 24.96 36.2525 23.6C36.2525 22.32 35.7725 21.32 34.8125 20.6C33.8525 19.8533 32.5592 19.48 30.9325 19.48C28.5858 19.48 26.2525 20.24 23.9325 21.76V17.96C26.0658 16.3867 28.6392 15.6 31.6525 15.6C34.1858 15.6 36.3192 16.2933 38.0525 17.68C39.8125 19.0667 40.6925 20.9467 40.6925 23.32C40.6925 25.2667 39.9725 26.9333 38.5325 28.32C37.1458 29.68 35.4392 30.68 33.4125 31.32V35Z" fill="white"/>
<defs>
<linearGradient id="paint0_linear_572_1527" x1="0.0401162" y1="-18" x2="68.9076" y2="-14.4095" gradientUnits="userSpaceOnUse">
<stop stop-color="#06BDFF"/>
<stop offset="1" stop-color="#2A75FF"/>
</linearGradient>
</defs>
</svg>
