<svg width="169" height="40" viewBox="0 0 169 40" fill="none" xmlns="http://www.w3.org/2000/svg">
<g clip-path="url(#clip0_20_1075)">
<path d="M4.3268 3.73145C2.07919 3.73145 0.269745 5.55208 0.269745 7.81358C0.269745 10.0751 2.07919 11.8957 4.3268 11.8957H27.9929V7.79396C27.9929 5.55029 26.1814 3.73145 23.9466 3.73145H4.3268Z" fill="url(#paint0_linear_20_1075)"/>
<path d="M16.1366 14.7874C20.0577 14.7874 23.2364 11.5891 23.2364 7.64372C23.2364 3.69835 20.0577 0.5 16.1366 0.5C12.2154 0.5 9.03671 3.69835 9.03671 7.64372C9.03671 11.5891 12.2154 14.7874 16.1366 14.7874Z" fill="#F4F4F4"/>
<path fill-rule="evenodd" clip-rule="evenodd" d="M16.1618 4.15625C16.6088 4.15625 16.9711 4.52002 16.9711 4.96875V6.86458H18.8594C19.3063 6.86458 19.6686 7.22835 19.6686 7.67708C19.6686 8.12581 19.3063 8.48958 18.8594 8.48958H16.9711V10.3854C16.9711 10.8341 16.6088 11.1979 16.1618 11.1979C15.7149 11.1979 15.3526 10.8341 15.3526 10.3854V8.48958H13.4643C13.0174 8.48958 12.6551 8.12581 12.6551 7.67708C12.6551 7.22835 13.0174 6.86458 13.4643 6.86458H15.3526V4.96875C15.3526 4.52002 15.7149 4.15625 16.1618 4.15625Z" fill="url(#paint1_linear_20_1075)"/>
<path d="M0.269745 7.81396V31.6264C0.269745 33.8878 2.07919 35.7085 4.3268 35.7085H28.0037C30.2384 35.7085 32.05 33.8897 32.05 31.646V15.9587C32.05 13.7149 30.2384 11.8961 28.0037 11.8961H4.3268C2.07919 11.8961 0.269745 10.0755 0.269745 7.81396Z" fill="url(#paint2_linear_20_1075)"/>
<path fill-rule="evenodd" clip-rule="evenodd" d="M15.5602 21.0495C15.5602 23.4306 17.4739 25.349 19.8496 25.349C22.2253 25.349 24.1392 23.4306 24.1392 21.0495C24.1392 18.6682 22.2253 16.75 19.8496 16.75C17.4739 16.75 15.5602 18.6682 15.5602 21.0495ZM21.7151 20.9891C21.7151 22.0361 20.8697 22.8849 19.8268 22.8849C18.784 22.8849 17.9386 22.0361 17.9386 20.9891C17.9386 19.942 18.784 19.0932 19.8268 19.0932C20.8697 19.0932 21.7151 19.942 21.7151 20.9891ZM22.6592 20.9891C22.6592 22.5596 21.3911 23.8328 19.8268 23.8328C18.2625 23.8328 16.9944 22.5596 16.9944 20.9891C16.9944 19.4185 18.2625 18.1453 19.8268 18.1453C21.3911 18.1453 22.6592 19.4185 22.6592 20.9891Z" fill="#F4F4F4"/>
<path d="M13.912 23.5963C15.7513 23.7093 17.251 25.1772 17.3643 27.0401L20.4201 24.8949C20.1938 24.9513 19.9392 24.9796 19.6845 24.9796C17.6471 24.9796 16.0059 23.3424 16.0059 21.31C16.0059 20.9995 16.0626 20.6891 16.1192 20.4067L13.912 23.5963Z" fill="#F4F4F4"/>
<path d="M13.1637 24.3188C12.4472 24.3188 11.8501 24.4975 11.3128 24.8843L13.0741 25.6285C14.0296 25.9857 14.5669 27.0275 14.2087 27.9502C13.9399 28.6645 13.2831 29.1111 12.4771 29.1111C12.2382 29.1111 12.0293 29.0813 11.7904 28.9919L9.93948 28.2478C10.3276 29.7064 11.6113 30.8672 13.1637 30.8672C14.9847 30.8672 16.4476 29.4088 16.4476 27.593C16.4476 25.7773 14.9849 24.3188 13.1637 24.3188Z" fill="#F4F4F4"/>
<path d="M8.22745 24.5098L12.7103 26.3208C13.3168 26.5471 13.6333 27.1256 13.4223 27.6539C13.2113 28.182 12.5784 28.4336 11.972 28.2324L8.22747 26.7987L8.22745 24.5098Z" fill="#F4F4F4"/>
<path d="M41.8116 5.9165H54.6249V18.9165H50.8484V9.13942H45.5882V18.9165H41.8116V5.9165Z" fill="#F4F4F4"/>
<path d="M64.0639 5.56445C66.1499 5.56445 67.8494 6.20543 69.1623 7.48737C70.475 8.75127 71.1315 10.3943 71.1315 12.4165C71.1315 14.4387 70.475 16.0908 69.1623 17.3728C67.8494 18.6366 66.1499 19.2686 64.0639 19.2686C61.9958 19.2686 60.3054 18.6366 58.9926 17.3728C57.6797 16.0908 57.0234 14.4387 57.0234 12.4165C57.0234 10.3943 57.6797 8.75127 58.9926 7.48737C60.3054 6.20543 61.9958 5.56445 64.0639 5.56445ZM61.7711 9.95195C61.1955 10.5839 60.9078 11.4054 60.9078 12.4165C60.9078 13.4277 61.1955 14.2491 61.7711 14.8811C62.3645 15.5131 63.1287 15.829 64.0639 15.829C64.999 15.829 65.7634 15.5131 66.3568 14.8811C66.9503 14.2491 67.247 13.4277 67.247 12.4165C67.247 11.4054 66.9503 10.5839 66.3568 9.95195C65.7634 9.32002 64.999 9.00404 64.0639 9.00404C63.1287 9.00404 62.3645 9.32002 61.7711 9.95195Z" fill="#F4F4F4"/>
<path d="M73.5286 5.9165H86.3419V18.9165H82.5653V9.13942H77.3052V18.9165H73.5286V5.9165Z" fill="#F4F4F4"/>
<path d="M95.7809 5.56445C97.867 5.56445 99.5665 6.20543 100.879 7.48737C102.192 8.75127 102.848 10.3943 102.848 12.4165C102.848 14.4387 102.192 16.0908 100.879 17.3728C99.5665 18.6366 97.867 19.2686 95.7809 19.2686C93.7128 19.2686 92.0223 18.6366 90.7095 17.3728C89.3968 16.0908 88.7404 14.4387 88.7404 12.4165C88.7404 10.3943 89.3968 8.75127 90.7095 7.48737C92.0223 6.20543 93.7128 5.56445 95.7809 5.56445ZM93.488 9.95195C92.9125 10.5839 92.6248 11.4054 92.6248 12.4165C92.6248 13.4277 92.9125 14.2491 93.488 14.8811C94.0815 15.5131 94.8458 15.829 95.7809 15.829C96.716 15.829 97.4803 15.5131 98.0738 14.8811C98.6672 14.2491 98.964 13.4277 98.964 12.4165C98.964 11.4054 98.6672 10.5839 98.0738 9.95195C97.4803 9.32002 96.716 9.00404 95.7809 9.00404C94.8458 9.00404 94.0815 9.32002 93.488 9.95195Z" fill="#F4F4F4"/>
<path d="M103.979 18.8082V16.3978H104.357C105.238 16.3978 105.867 15.8199 106.245 14.6644C106.623 13.4908 106.812 11.4144 106.812 8.43525V5.9165H117.898V18.9165H114.122V9.13942H110.264V9.979C110.264 11.4957 110.183 12.8137 110.022 13.9332C109.86 15.0345 109.644 15.9193 109.374 16.5873C109.104 17.2553 108.763 17.7881 108.349 18.1853C107.954 18.5644 107.549 18.8172 107.135 18.9436C106.74 19.0881 106.281 19.1603 105.759 19.1603C105.076 19.1603 104.483 19.0428 103.979 18.8082Z" fill="#F4F4F4"/>
<path d="M124.696 18.9165H120.92V5.9165H124.696V10.6832H130.226V5.9165H134.003V18.9165H130.226V13.9061H124.696V18.9165Z" fill="#F4F4F4"/>
<path d="M146.484 12.0373L139.308 18.9165H137.015V5.9165H140.792V12.7957L147.967 5.9165H150.26V18.9165H146.484V12.0373Z" fill="#F4F4F4"/>
<path d="M156.83 18.9165H153.269V5.9165H155.562L161.092 13.4728L166.622 5.9165H168.915V18.9165H165.354V13.229L162.009 17.8873H160.175L156.83 13.2019V18.9165Z" fill="#F4F4F4"/>
<path d="M156.78 21.0835H153.219V34.0835H155.512L161.042 26.5272L166.572 34.0835H168.865V21.0835H165.304V26.771L161.959 22.1127H160.125L156.78 26.7981V21.0835Z" fill="url(#paint3_linear_20_1075)"/>
<path d="M142.915 34.3271C141.279 34.3271 139.984 33.9659 139.031 33.2437C138.096 32.5034 137.628 31.5104 137.628 30.2646C137.628 28.9826 138.123 27.9805 139.111 27.2583C140.119 26.5361 141.503 26.175 143.266 26.175C143.985 26.175 144.83 26.2562 145.801 26.4187V26.0396C145.801 25.4076 145.514 24.9291 144.938 24.6041C144.381 24.2611 143.58 24.0895 142.537 24.0895C140.936 24.0895 139.678 24.4416 138.761 25.1458V21.8145C140.002 21.1104 141.512 20.7583 143.293 20.7583C145.289 20.7583 146.836 21.1826 147.932 22.0312C149.029 22.8799 149.578 24.0715 149.578 25.6062V30.4C149.578 31.1583 150.063 31.5375 151.035 31.5375V33.9479C150.639 34.1826 150.081 34.3 149.362 34.3C148.229 34.3 147.321 33.957 146.638 33.2708C145.684 33.975 144.443 34.3271 142.915 34.3271ZM144.102 28.8021C143.256 28.8021 142.591 28.9284 142.106 29.1812C141.638 29.4159 141.404 29.75 141.404 30.1833C141.404 30.5625 141.603 30.8604 141.998 31.0771C142.393 31.2757 142.924 31.375 143.589 31.375C144.524 31.375 145.262 31.1221 145.801 30.6166V28.9916C145.117 28.8653 144.551 28.8021 144.102 28.8021Z" fill="url(#paint4_linear_20_1075)"/>
<path d="M129.616 20.7314C131.756 20.7314 133.411 21.4718 134.58 22.9523C135.749 24.4148 136.198 26.3377 135.928 28.721H126.865C127.188 29.4614 127.755 30.039 128.564 30.4544C129.391 30.8515 130.39 31.0502 131.558 31.0502C133.123 31.0502 134.391 30.689 135.362 29.9669V33.3252C134.085 34.0655 132.592 34.4356 130.884 34.4356C128.456 34.4356 126.514 33.8036 125.057 32.5398C123.619 31.2759 122.899 29.5877 122.899 27.4752C122.899 25.5072 123.52 23.8911 124.761 22.6273C126.001 21.3634 127.62 20.7314 129.616 20.7314ZM126.73 26.121H132.26C132.188 25.453 131.909 24.9294 131.424 24.5502C130.956 24.153 130.363 23.9544 129.643 23.9544C128.942 23.9544 128.33 24.153 127.809 24.5502C127.287 24.9294 126.928 25.453 126.73 26.121Z" fill="url(#paint5_linear_20_1075)"/>
<path d="M117.963 21.0833H121.47V24.3062H117.963V29.0187C117.963 29.6325 118.152 30.1382 118.529 30.5353C118.925 30.9145 119.438 31.1041 120.067 31.1041C120.642 31.1041 121.11 30.9507 121.47 30.6437V33.7312C120.732 34.1284 119.896 34.327 118.961 34.327C117.576 34.327 116.434 33.9208 115.535 33.1083C114.654 32.2958 114.213 31.2395 114.213 29.9395V24.3062H112.055V21.0833H114.213V19.2958L117.963 17.4541V21.0833Z" fill="url(#paint6_linear_20_1075)"/>
<path d="M99.9703 24.8481C99.9703 23.4939 100.447 22.4739 101.4 21.7877C102.353 21.0835 103.729 20.7314 105.527 20.7314C107.488 20.7314 109.025 21.1377 110.14 21.9502V25.0919C109.295 24.3515 107.892 23.9814 105.932 23.9814C104.331 23.9814 103.531 24.2343 103.531 24.7398C103.531 25.2453 104.376 25.6245 106.067 25.8773C109.52 26.3828 111.246 27.8273 111.246 30.2106C111.246 31.6009 110.725 32.6572 109.681 33.3794C108.638 34.0835 107.128 34.4356 105.15 34.4356C103.045 34.4356 101.4 34.0114 100.213 33.1627V30.0752C101.274 30.8155 102.776 31.1856 104.718 31.1856C105.599 31.1856 106.309 31.1044 106.849 30.9419C107.389 30.7614 107.658 30.5356 107.658 30.2648C107.658 29.8134 106.858 29.4614 105.257 29.2085C103.441 28.9377 102.101 28.4593 101.238 27.7731C100.393 27.0689 99.9703 26.0939 99.9703 24.8481Z" fill="url(#paint7_linear_20_1075)"/>
</g>
<defs>
<linearGradient id="paint0_linear_20_1075" x1="28.0543" y1="3.74977" x2="14.1339" y2="11.8264" gradientUnits="userSpaceOnUse">
<stop stop-color="#2A75FF"/>
<stop offset="1" stop-color="#1661EB"/>
</linearGradient>
<linearGradient id="paint1_linear_20_1075" x1="18.8827" y1="4.96875" x2="13.4661" y2="10.3638" gradientUnits="userSpaceOnUse">
<stop stop-color="#06BDFF"/>
<stop offset="1" stop-color="#2A75FF"/>
</linearGradient>
<linearGradient id="paint2_linear_20_1075" x1="0.269745" y1="7.81396" x2="33.8312" y2="10.1534" gradientUnits="userSpaceOnUse">
<stop stop-color="#06BDFF"/>
<stop offset="1" stop-color="#2A75FF"/>
</linearGradient>
<linearGradient id="paint3_linear_20_1075" x1="99.9939" y1="17.495" x2="133.715" y2="-9.51878" gradientUnits="userSpaceOnUse">
<stop offset="0.0179457" stop-color="#06BDFF"/>
<stop offset="1" stop-color="#2A75FF"/>
</linearGradient>
<linearGradient id="paint4_linear_20_1075" x1="99.9939" y1="17.4948" x2="133.715" y2="-9.51899" gradientUnits="userSpaceOnUse">
<stop offset="0.0179457" stop-color="#06BDFF"/>
<stop offset="1" stop-color="#2A75FF"/>
</linearGradient>
<linearGradient id="paint5_linear_20_1075" x1="99.994" y1="17.495" x2="133.715" y2="-9.51875" gradientUnits="userSpaceOnUse">
<stop offset="0.0179457" stop-color="#06BDFF"/>
<stop offset="1" stop-color="#2A75FF"/>
</linearGradient>
<linearGradient id="paint6_linear_20_1075" x1="99.9939" y1="17.4947" x2="133.715" y2="-9.51901" gradientUnits="userSpaceOnUse">
<stop offset="0.0179457" stop-color="#06BDFF"/>
<stop offset="1" stop-color="#2A75FF"/>
</linearGradient>
<linearGradient id="paint7_linear_20_1075" x1="99.9939" y1="17.495" x2="133.715" y2="-9.51874" gradientUnits="userSpaceOnUse">
<stop offset="0.0179457" stop-color="#06BDFF"/>
<stop offset="1" stop-color="#2A75FF"/>
</linearGradient>
<clipPath id="clip0_20_1075">
<rect width="169" height="39" fill="white" transform="translate(0 0.5)"/>
</clipPath>
</defs>
</svg>
