<svg width="208" height="48" viewBox="0 0 208 48" fill="none" xmlns="http://www.w3.org/2000/svg">
<path d="M5.3253 3.97745C2.55901 3.97745 0.332001 6.21823 0.332001 9.00162C0.332001 11.785 2.55901 14.0258 5.3253 14.0258H34.4528V8.97747C34.4528 6.21603 32.2232 3.97745 29.4728 3.97745H5.3253Z" fill="url(#paint0_linear_7_2210)"/>
<path d="M19.8604 17.5845C24.6864 17.5845 28.5986 13.6481 28.5986 8.79227C28.5986 3.93643 24.6864 0 19.8604 0C15.0344 0 11.1221 3.93643 11.1221 8.79227C11.1221 13.6481 15.0344 17.5845 19.8604 17.5845Z" fill="#F4F4F4"/>
<path fill-rule="evenodd" clip-rule="evenodd" d="M19.8915 4.5C20.4415 4.5 20.8875 4.94772 20.8875 5.5V7.83333H23.2115C23.7616 7.83333 24.2075 8.28105 24.2075 8.83333C24.2075 9.38562 23.7616 9.83333 23.2115 9.83333H20.8875V12.1667C20.8875 12.719 20.4415 13.1667 19.8915 13.1667C19.3414 13.1667 18.8955 12.719 18.8955 12.1667V9.83333H16.5714C16.0214 9.83333 15.5754 9.38562 15.5754 8.83333C15.5754 8.28105 16.0214 7.83333 16.5714 7.83333H18.8955V5.5C18.8955 4.94772 19.3414 4.5 19.8915 4.5Z" fill="url(#paint1_linear_7_2210)"/>
<path d="M0.332001 9.0016V38.3092C0.332001 41.0925 2.55901 43.3333 5.3253 43.3333H34.4661C37.2166 43.3333 39.4461 41.0948 39.4461 38.3333V19.0258C39.4461 16.2644 37.2166 14.0258 34.4661 14.0258H5.3253C2.55901 14.0258 0.332001 11.785 0.332001 9.0016Z" fill="url(#paint2_linear_7_2210)"/>
<path fill-rule="evenodd" clip-rule="evenodd" d="M19.1509 25.2917C19.1509 28.2223 21.5063 30.5833 24.4303 30.5833C27.3542 30.5833 29.7098 28.2223 29.7098 25.2917C29.7098 22.3608 27.3542 20 24.4303 20C21.5063 20 19.1509 22.3608 19.1509 25.2917ZM26.7263 25.2173C26.7263 26.506 25.6858 27.5507 24.4022 27.5507C23.1187 27.5507 22.0782 26.506 22.0782 25.2173C22.0782 23.9287 23.1187 22.884 24.4022 22.884C25.6858 22.884 26.7263 23.9287 26.7263 25.2173ZM27.8883 25.2173C27.8883 27.1503 26.3275 28.7173 24.4022 28.7173C22.4769 28.7173 20.9162 27.1503 20.9162 25.2173C20.9162 23.2843 22.4769 21.7173 24.4022 21.7173C26.3275 21.7173 27.8883 23.2843 27.8883 25.2173Z" fill="#F4F4F4"/>
<path d="M17.1224 28.4265C19.3862 28.5655 21.2319 30.3722 21.3714 32.665L25.1325 30.0247C24.8539 30.0942 24.5405 30.129 24.2271 30.129C21.7195 30.129 19.6996 28.114 19.6996 25.6125C19.6996 25.2303 19.7693 24.8483 19.839 24.5008L17.1224 28.4265Z" fill="#F4F4F4"/>
<path d="M16.2015 29.3157C15.3197 29.3157 14.5848 29.5355 13.9234 30.0117L16.0913 30.9275C17.2671 31.3672 17.9285 32.6493 17.4876 33.785C17.1568 34.6642 16.3485 35.2138 15.3564 35.2138C15.0625 35.2138 14.8053 35.1772 14.5113 35.0672L12.2332 34.1513C12.7109 35.9465 14.2909 37.3752 16.2015 37.3752C18.4428 37.3752 20.2432 35.5802 20.2432 33.3453C20.2432 31.1107 18.4429 29.3157 16.2015 29.3157Z" fill="#F4F4F4"/>
<path d="M10.1261 29.5507L15.6435 31.7797C16.3899 32.0582 16.7794 32.7702 16.5198 33.4203C16.2601 34.0703 15.4812 34.38 14.7347 34.1323L10.1261 32.3678L10.1261 29.5507Z" fill="#F4F4F4"/>
<path d="M51.4605 6.66667H67.2307V22.6667H62.5826V10.6333H56.1086V22.6667H51.4605V6.66667Z" fill="#F4F4F4"/>
<path d="M78.8479 6.23333C81.4153 6.23333 83.5069 7.02223 85.1228 8.6C86.7385 10.1556 87.5464 12.1778 87.5464 14.6667C87.5464 17.1555 86.7385 19.1888 85.1228 20.7667C83.5069 22.3222 81.4153 23.1 78.8479 23.1C76.3025 23.1 74.222 22.3222 72.6063 20.7667C70.9904 19.1888 70.1826 17.1555 70.1826 14.6667C70.1826 12.1778 70.9904 10.1556 72.6063 8.6C74.222 7.02223 76.3025 6.23333 78.8479 6.23333ZM76.0259 11.6333C75.3176 12.4111 74.9635 13.4222 74.9635 14.6667C74.9635 15.9111 75.3176 16.9222 76.0259 17.7C76.7563 18.4778 77.6969 18.8667 78.8479 18.8667C79.9988 18.8667 80.9396 18.4778 81.67 17.7C82.4004 16.9222 82.7656 15.9111 82.7656 14.6667C82.7656 13.4222 82.4004 12.4111 81.67 11.6333C80.9396 10.8556 79.9988 10.4667 78.8479 10.4667C77.6969 10.4667 76.7563 10.8556 76.0259 11.6333Z" fill="#F4F4F4"/>
<path d="M90.4968 6.66667H106.267V22.6667H101.619V10.6333H95.1448V22.6667H90.4968V6.66667Z" fill="#F4F4F4"/>
<path d="M117.884 6.23333C120.452 6.23333 122.543 7.02223 124.159 8.6C125.775 10.1556 126.583 12.1778 126.583 14.6667C126.583 17.1555 125.775 19.1888 124.159 20.7667C122.543 22.3222 120.452 23.1 117.884 23.1C115.339 23.1 113.258 22.3222 111.643 20.7667C110.027 19.1888 109.219 17.1555 109.219 14.6667C109.219 12.1778 110.027 10.1556 111.643 8.6C113.258 7.02223 115.339 6.23333 117.884 6.23333ZM115.062 11.6333C114.354 12.4111 114 13.4222 114 14.6667C114 15.9111 114.354 16.9222 115.062 17.7C115.793 18.4778 116.733 18.8667 117.884 18.8667C119.035 18.8667 119.976 18.4778 120.706 17.7C121.437 16.9222 121.802 15.9111 121.802 14.6667C121.802 13.4222 121.437 12.4111 120.706 11.6333C119.976 10.8556 119.035 10.4667 117.884 10.4667C116.733 10.4667 115.793 10.8556 115.062 11.6333Z" fill="#F4F4F4"/>
<path d="M127.974 22.5333V19.5667H128.439C129.524 19.5667 130.298 18.8555 130.763 17.4333C131.228 15.9889 131.46 13.4333 131.46 9.76667V6.66667H145.106V22.6667H140.458V10.6333H135.71V11.6667C135.71 13.5333 135.61 15.1556 135.411 16.5333C135.212 17.8888 134.946 18.9778 134.614 19.8C134.282 20.6222 133.862 21.2778 133.353 21.7667C132.866 22.2333 132.368 22.5445 131.859 22.7C131.372 22.8778 130.807 22.9667 130.166 22.9667C129.324 22.9667 128.594 22.8222 127.974 22.5333Z" fill="#F4F4F4"/>
<path d="M153.472 22.6667H148.824V6.66667H153.472V12.5333H160.278V6.66667H164.926V22.6667H160.278V16.5H153.472V22.6667Z" fill="#F4F4F4"/>
<path d="M180.288 14.2L171.456 22.6667H168.634V6.66667H173.282V15.1333L182.114 6.66667H184.936V22.6667H180.288V14.2Z" fill="#F4F4F4"/>
<path d="M193.022 22.6667H188.639V6.66667H191.461L198.267 15.9667L205.073 6.66667H207.895V22.6667H203.513V15.6667L199.396 21.4H197.138L193.022 15.6333V22.6667Z" fill="#F4F4F4"/>
<path d="M192.96 25.3333H188.578V41.3333H191.4L198.206 32.0333L205.012 41.3333H207.834V25.3333H203.452V32.3333L199.335 26.6H197.077L192.96 32.3667V25.3333Z" fill="url(#paint3_linear_7_2210)"/>
<path d="M175.895 41.6333C173.882 41.6333 172.288 41.1888 171.114 40.3C169.964 39.3888 169.388 38.1667 169.388 36.6333C169.388 35.0555 169.997 33.8222 171.214 32.9333C172.454 32.0445 174.157 31.6 176.327 31.6C177.212 31.6 178.253 31.7 179.448 31.9V31.4333C179.448 30.6555 179.094 30.0667 178.385 29.6667C177.7 29.2445 176.714 29.0333 175.431 29.0333C173.46 29.0333 171.911 29.4667 170.782 30.3333V26.2333C172.31 25.3667 174.169 24.9333 176.36 24.9333C178.817 24.9333 180.721 25.4555 182.071 26.5C183.42 27.5445 184.096 29.0112 184.096 30.9V36.8C184.096 37.7333 184.693 38.2 185.889 38.2V41.1667C185.402 41.4555 184.715 41.6 183.83 41.6C182.436 41.6 181.319 41.1778 180.477 40.3333C179.303 41.2 177.776 41.6333 175.895 41.6333ZM177.356 34.8333C176.315 34.8333 175.497 34.9888 174.899 35.3C174.323 35.5888 174.036 36 174.036 36.5333C174.036 37 174.28 37.3667 174.767 37.6333C175.253 37.8778 175.907 38 176.725 38C177.876 38 178.784 37.6888 179.448 37.0667V35.0667C178.606 34.9112 177.909 34.8333 177.356 34.8333Z" fill="url(#paint4_linear_7_2210)"/>
<path d="M159.528 24.9C162.162 24.9 164.198 25.8112 165.636 27.6333C167.076 29.4333 167.628 31.8 167.296 34.7333H156.141C156.54 35.6445 157.237 36.3555 158.233 36.8667C159.251 37.3555 160.479 37.6 161.918 37.6C163.844 37.6 165.404 37.1555 166.599 36.2667V40.4C165.028 41.3112 163.191 41.7667 161.088 41.7667C158.1 41.7667 155.71 40.9888 153.917 39.4333C152.146 37.8778 151.261 35.8 151.261 33.2C151.261 30.7778 152.024 28.7888 153.552 27.2333C155.079 25.6778 157.071 24.9 159.528 24.9ZM155.975 31.5333H162.781C162.693 30.7112 162.35 30.0667 161.752 29.6C161.177 29.1112 160.446 28.8667 159.561 28.8667C158.698 28.8667 157.945 29.1112 157.303 29.6C156.661 30.0667 156.219 30.7112 155.975 31.5333Z" fill="url(#paint5_linear_7_2210)"/>
<path d="M145.185 25.3333H149.501V29.3H145.185V35.1C145.185 35.8555 145.417 36.4778 145.882 36.9667C146.369 37.4333 147 37.6667 147.775 37.6667C148.483 37.6667 149.058 37.4778 149.501 37.1V40.9C148.594 41.3888 147.564 41.6333 146.413 41.6333C144.709 41.6333 143.304 41.1333 142.197 40.1333C141.112 39.1333 140.57 37.8333 140.57 36.2333V29.3H137.914V25.3333H140.57V23.1333L145.185 20.8667V25.3333Z" fill="url(#paint6_linear_7_2210)"/>
<path d="M123.04 29.9667C123.04 28.3 123.627 27.0445 124.8 26.2C125.973 25.3333 127.666 24.9 129.88 24.9C132.292 24.9 134.185 25.4 135.557 26.4V30.2667C134.517 29.3555 132.79 28.9 130.378 28.9C128.408 28.9 127.423 29.2112 127.423 29.8333C127.423 30.4555 128.463 30.9222 130.544 31.2333C134.793 31.8555 136.918 33.6333 136.918 36.5667C136.918 38.2778 136.276 39.5778 134.992 40.4667C133.709 41.3333 131.85 41.7667 129.415 41.7667C126.825 41.7667 124.8 41.2445 123.339 40.2V36.4C124.645 37.3112 126.493 37.7667 128.884 37.7667C129.968 37.7667 130.842 37.6667 131.506 37.4667C132.17 37.2445 132.502 36.9667 132.502 36.6333C132.502 36.0778 131.518 35.6445 129.548 35.3333C127.312 35 125.663 34.4112 124.601 33.5667C123.561 32.7 123.04 31.5 123.04 29.9667Z" fill="url(#paint7_linear_7_2210)"/>
<defs>
<linearGradient id="paint0_linear_7_2210" x1="34.5283" y1="4" x2="17.3956" y2="13.9404" gradientUnits="userSpaceOnUse">
<stop stop-color="#2A75FF"/>
<stop offset="1" stop-color="#1661EB"/>
</linearGradient>
<linearGradient id="paint1_linear_7_2210" x1="23.2402" y1="5.5" x2="16.5736" y2="12.14" gradientUnits="userSpaceOnUse">
<stop stop-color="#06BDFF"/>
<stop offset="1" stop-color="#2A75FF"/>
</linearGradient>
<linearGradient id="paint2_linear_7_2210" x1="0.332001" y1="9.0016" x2="41.6385" y2="11.8809" gradientUnits="userSpaceOnUse">
<stop stop-color="#06BDFF"/>
<stop offset="1" stop-color="#2A75FF"/>
</linearGradient>
<linearGradient id="paint3_linear_7_2210" x1="123.069" y1="20.9167" x2="164.572" y2="-12.331" gradientUnits="userSpaceOnUse">
<stop offset="0.0179457" stop-color="#06BDFF"/>
<stop offset="1" stop-color="#2A75FF"/>
</linearGradient>
<linearGradient id="paint4_linear_7_2210" x1="123.069" y1="20.9167" x2="164.572" y2="-12.331" gradientUnits="userSpaceOnUse">
<stop offset="0.0179457" stop-color="#06BDFF"/>
<stop offset="1" stop-color="#2A75FF"/>
</linearGradient>
<linearGradient id="paint5_linear_7_2210" x1="123.069" y1="20.9167" x2="164.572" y2="-12.331" gradientUnits="userSpaceOnUse">
<stop offset="0.0179457" stop-color="#06BDFF"/>
<stop offset="1" stop-color="#2A75FF"/>
</linearGradient>
<linearGradient id="paint6_linear_7_2210" x1="123.069" y1="20.9167" x2="164.572" y2="-12.331" gradientUnits="userSpaceOnUse">
<stop offset="0.0179457" stop-color="#06BDFF"/>
<stop offset="1" stop-color="#2A75FF"/>
</linearGradient>
<linearGradient id="paint7_linear_7_2210" x1="123.069" y1="20.9167" x2="164.572" y2="-12.331" gradientUnits="userSpaceOnUse">
<stop offset="0.0179457" stop-color="#06BDFF"/>
<stop offset="1" stop-color="#2A75FF"/>
</linearGradient>
</defs>
</svg>
