<svg width="101" height="30" viewBox="0 0 101 30" fill="none" xmlns="http://www.w3.org/2000/svg">
<g clip-path="url(#clip0_24_2934)">
<path d="M65.0965 5.29892V23.3523C65.098 23.4183 65.0861 23.484 65.0615 23.5454C65.0368 23.6068 64.9999 23.6624 64.953 23.7092C64.9062 23.7559 64.8503 23.7927 64.7888 23.8173C64.7272 23.8419 64.6613 23.8538 64.5951 23.8523H60.9016C60.8353 23.8538 60.7694 23.8419 60.7079 23.8173C60.6463 23.7927 60.5904 23.7559 60.5435 23.7092C60.4967 23.6624 60.4598 23.6068 60.4352 23.5454C60.4104 23.484 60.3985 23.4183 60.4 23.3523V5.29892C60.3985 5.23285 60.4104 5.16715 60.4352 5.1058C60.4598 5.04445 60.4967 4.98872 60.5435 4.94199C60.5904 4.89525 60.6463 4.85847 60.7079 4.83389C60.7694 4.8093 60.8353 4.79741 60.9016 4.79892H64.5951C64.6613 4.79741 64.7272 4.8093 64.7888 4.83389C64.8503 4.85847 64.9062 4.89525 64.953 4.94199C64.9999 4.98872 65.0368 5.04445 65.0615 5.1058C65.0861 5.16715 65.098 5.23285 65.0965 5.29892ZM93.9262 4.79892C94.0699 4.79892 94.2494 4.87004 94.4276 5.01337C94.5358 5.12004 94.5358 5.29892 94.5001 5.44226L88.4039 23.5312C88.3668 23.6248 88.3029 23.7053 88.2199 23.7627C88.137 23.82 88.0389 23.8515 87.938 23.8534H84.6391C84.424 23.8534 84.2445 23.7455 84.1733 23.5312L80.6213 12.9856L77.0717 23.53C77.0347 23.6237 76.9707 23.7042 76.8877 23.7615C76.8049 23.8189 76.7067 23.8505 76.6058 23.8523H73.307C73.0918 23.8523 72.9125 23.7455 72.8411 23.53L66.7448 5.44115C66.7092 5.29892 66.7092 5.15559 66.8162 5.01337C66.8886 4.87004 67.068 4.79892 67.2107 4.79892H71.3343C71.5494 4.79892 71.7289 4.94115 71.8013 5.1556L75.0634 15.8445L78.6498 5.1556C78.6868 5.06199 78.7508 4.98141 78.8338 4.92406C78.9167 4.86671 79.0148 4.83515 79.1157 4.83337H82.0201C82.2352 4.83337 82.4145 4.94115 82.4859 5.1556L86.0724 15.8445L89.3356 5.1556C89.3648 5.05434 89.4258 4.96507 89.5097 4.9009C89.5935 4.83671 89.6957 4.80097 89.8015 4.79892H93.9262ZM100.165 4.79892C100.416 4.79892 100.631 5.01337 100.667 5.29892V23.3523C100.668 23.4183 100.656 23.484 100.631 23.5454C100.607 23.6068 100.57 23.6624 100.523 23.7092C100.476 23.7559 100.42 23.7927 100.359 23.8173C100.297 23.8419 100.231 23.8538 100.165 23.8523H96.4716C96.4053 23.8538 96.3394 23.8419 96.2779 23.8173C96.2163 23.7927 96.1604 23.7559 96.1136 23.7092C96.0667 23.6624 96.0298 23.6068 96.0052 23.5454C95.9806 23.484 95.9686 23.4183 95.9702 23.3523V5.29892C95.9686 5.23285 95.9806 5.16715 96.0052 5.1058C96.0298 5.04445 96.0667 4.98872 96.1136 4.94199C96.1604 4.89525 96.2163 4.85847 96.2779 4.83389C96.3394 4.8093 96.4053 4.79741 96.4716 4.79892H100.165ZM58.248 23.21C58.4631 23.46 58.2836 23.8167 57.9604 23.8167H53.4424C53.3534 23.819 53.265 23.801 53.1842 23.7638C53.1034 23.7267 53.0324 23.6713 52.9765 23.6023L52.2242 22.6734C50.6461 23.6734 48.7804 24.2823 46.8089 24.2823C41.2876 24.2823 36.8052 19.8134 36.8052 14.3078C36.8052 8.80226 41.2876 4.33337 46.8089 4.33337C52.3312 4.33337 56.8136 8.80226 56.8136 14.3078C56.8136 16.2745 56.2397 18.1334 55.2356 19.7055L58.248 23.21ZM49.283 19.2055L47.3104 16.81C47.0963 16.56 47.2758 16.1667 47.5979 16.1667H51.7572C51.9722 15.5945 52.0804 14.9512 52.0804 14.3078C52.0804 11.3411 49.857 8.7667 46.8089 8.7667C43.7618 8.7667 41.5374 11.3411 41.5374 14.3078C41.5374 17.2745 43.7618 19.8134 46.8089 19.8134C47.6693 19.8489 48.5307 19.5989 49.283 19.2055Z" fill="#FF8C00"/>
<path d="M24.5932 18.8879C25.1162 19.082 25.3175 19.8378 25.3575 20.1675C25.4382 20.769 25.2575 21.0018 25.0562 21.0018C24.8551 21.0018 24.5732 20.769 24.272 20.3038C23.9701 19.8378 23.8496 19.3146 24.0107 19.0428C24.1107 18.868 24.3314 18.7909 24.5932 18.8879ZM21.5373 21.0795C21.8591 21.0795 22.221 21.215 22.5428 21.4863C23.1658 21.9908 23.347 22.5724 23.0252 22.9991C22.8439 23.2125 22.5428 23.3481 22.201 23.3481C21.8591 23.3481 21.4973 23.2318 21.256 23.0184C20.6929 22.5531 20.5324 21.7768 20.8935 21.3506C21.0348 21.1759 21.256 21.0795 21.5373 21.0795ZM14.5005 26.6836C6.85927 26.6836 0.666748 20.7106 0.666748 13.3415C0.666748 5.9725 6.8599 0 14.4998 0C22.1403 0 28.3334 5.9731 28.3334 13.3415C28.3334 15.8429 27.6098 18.1899 26.3837 20.1874C26.343 20.2453 26.2424 20.226 26.2224 20.1483C25.74 16.8711 23.6689 15.0671 20.6529 14.5248C20.3911 14.4855 20.3511 14.3306 20.6929 14.292C21.6179 14.2143 22.9246 14.2336 23.6083 14.3499C23.6483 14.0203 23.6689 13.6713 23.6689 13.3223C23.6689 8.45456 19.5667 4.49821 14.5198 4.49821C9.4734 4.49821 5.3713 8.45456 5.3713 13.3223C5.3713 18.1899 9.4734 22.1463 14.5205 22.1463H14.9423C14.7989 21.359 14.7382 20.5598 14.761 19.7606C14.7816 19.2176 14.9023 19.1399 15.1435 19.5666C16.4102 21.6804 18.2201 23.5808 21.7584 24.3373C24.6538 24.958 27.5492 25.6753 30.6657 29.4954C30.947 29.8251 30.5251 30.1741 30.2033 29.9029C27.0267 27.1875 24.1314 26.2955 21.4973 26.2955C18.5412 26.3154 16.5315 26.6836 14.5005 26.6836Z" fill="#FF8C00"/>
</g>
<defs>
<clipPath id="clip0_24_2934">
<rect width="100" height="30" fill="white" transform="translate(0.666748)"/>
</clipPath>
</defs>
</svg>
