<svg width="24" height="24" viewBox="0 0 24 24" fill="none" xmlns="http://www.w3.org/2000/svg">
<path d="M6.11833 15.1215C5.49214 15.1215 5.00012 15.5935 5.00012 16.1943C5.00012 16.795 5.49214 17.267 6.11833 17.267H8.13103V19.9273C8.13103 20.528 8.62305 21 9.24924 21C9.87544 21 10.3675 20.528 10.3675 19.9273V17.267H15.4441C16.0703 17.267 16.5623 16.795 16.5623 16.1943C16.5623 15.5935 16.0703 15.1215 15.4441 15.1215H10.3675V13.3409H13.6102C16.5847 13.3409 19 11.0238 19 8.17043C19 5.31715 16.5847 3 13.6102 3H9.27157C8.71246 3 8.26522 3.3861 8.17568 3.87966C8.15337 3.98696 8.13091 4.07271 8.13091 4.18V11.174H6.11821C5.49201 11.174 5 11.646 5 12.2467C5 12.8474 5.49201 13.3194 6.11821 13.3194H8.13091V15.1001H6.11833L6.11833 15.1215ZM10.3675 5.14541H13.6103C15.3547 5.14541 16.7637 6.49705 16.7637 8.17047C16.7637 9.84389 15.3547 11.1955 13.6103 11.1955L10.3675 11.1954V5.14541Z" fill="#61758B"/>
</svg>
