<svg width="14" height="18" viewBox="0 0 14 18" fill="none" xmlns="http://www.w3.org/2000/svg">
<path d="M1.11833 12.1215C0.492136 12.1215 0.000123703 12.5935 0.000123703 13.1943C0.000123703 13.795 0.492136 14.267 1.11833 14.267H3.13103V16.9273C3.13103 17.528 3.62305 18 4.24924 18C4.87544 18 5.36745 17.528 5.36745 16.9273V14.267H10.4441C11.0703 14.267 11.5623 13.795 11.5623 13.1943C11.5623 12.5935 11.0703 12.1215 10.4441 12.1215H5.36745V10.3409H8.61022C11.5847 10.3409 14 8.02382 14 5.17043C14 2.31715 11.5847 0 8.61022 0H4.27157C3.71246 0 3.26522 0.386097 3.17568 0.879655C3.15337 0.986956 3.13091 1.07271 3.13091 1.18V8.17403H1.11821C0.492013 8.17403 0 8.64602 0 9.24673C0 9.84745 0.492013 10.3194 1.11821 10.3194H3.13091V12.1001H1.11833L1.11833 12.1215ZM5.36753 2.14541H8.6103C10.3547 2.14541 11.7637 3.49705 11.7637 5.17047C11.7637 6.84389 10.3547 8.19553 8.6103 8.19553L5.36753 8.19538V2.14541Z" fill="#F4F4F4"/>
</svg>
