<svg width="100" height="52" viewBox="0 0 100 52" fill="none" xmlns="http://www.w3.org/2000/svg">
<mask id="mask0_24_2907" style="mask-type:luminance" maskUnits="userSpaceOnUse" x="0" y="0" width="100" height="51">
<path d="M0 0H100V50.9435H0V0Z" fill="white"/>
</mask>
<g mask="url(#mask0_24_2907)">
<path d="M88.4687 14.3038V26.7585H84.085V18.0212H79.8625V26.7585H75.48V14.3026H88.4675L88.4687 14.3038Z" fill="#F4F4F4"/>
<path fill-rule="evenodd" clip-rule="evenodd" d="M66.4787 27.2036C70.4037 27.2036 73.3162 24.7621 73.3162 21.0612C73.3162 17.4796 71.1662 15.1548 67.5737 15.1548C65.9162 15.1548 64.5487 15.7471 63.5175 16.7681C63.7637 14.6564 65.5237 13.1154 67.4612 13.1154L71.2762 13.1078L73.18 9.41071C73.18 9.41071 68.9525 9.50836 66.9875 9.50836C62.4975 9.587 59.4637 13.728 59.4637 18.758C59.4637 24.6175 62.4225 27.2036 66.4787 27.2036ZM66.5037 18.4295C67.96 18.4295 68.97 19.401 68.97 21.0612C68.97 22.5566 68.0725 23.7881 66.5025 23.7906C65.0025 23.7906 63.9912 22.6491 63.9912 21.0866C63.9912 19.4251 65.0012 18.4295 66.5037 18.4295Z" fill="#F4F4F4"/>
<path d="M55.8962 22.5883C55.8962 22.5883 54.8612 23.1945 53.315 23.3087C51.5375 23.3619 49.9537 22.223 49.9537 20.1988C49.9537 18.2254 51.3512 17.094 53.27 17.094C54.4462 17.094 56.0037 17.921 56.0037 17.921C56.0037 17.921 57.1412 15.8004 57.7325 14.7401C56.6525 13.9094 55.2125 13.454 53.5387 13.454C49.315 13.454 46.0437 16.2481 46.0437 20.1747C46.0437 24.1508 49.1187 26.8802 53.5387 26.7977C54.775 26.7508 56.48 26.3107 57.5187 25.6335L55.8962 22.5896V22.5883Z" fill="#F4F4F4"/>
<path d="M0 11.0887L6.08 22.1165V28.8422L0.0075 39.8498L0 11.0887Z" fill="#5B57A2"/>
<path d="M23.3462 18.1036L29.0437 14.56L40.7037 14.5499L23.3462 25.338V18.1036Z" fill="#D90751"/>
<path d="M23.3137 11.024L23.3462 25.6233L17.2512 21.8235V0L23.3137 11.024Z" fill="#FAB718"/>
<path d="M40.7037 14.5499L29.0425 14.56L23.3137 11.024L17.2512 0L40.7037 14.5499Z" fill="#ED6F26"/>
<path d="M23.3462 39.9094V32.8259L17.2512 29.0972L17.255 50.9435L23.3462 39.9094Z" fill="#63B22F"/>
<path d="M29.0287 36.3987L6.07875 22.1165L0 11.0887L40.6787 36.3835L29.0287 36.3987Z" fill="#1487C9"/>
<path d="M17.255 50.9435L23.3463 39.9094L29.0288 36.3988L40.6788 36.3835L17.255 50.9435Z" fill="#017F36"/>
<path d="M0.00744629 39.8485L17.3012 29.0984L11.4874 25.48L6.07995 28.8435L0.00744629 39.8485Z" fill="#984995"/>
<path d="M49.9551 35.1406C49.8213 35.3144 49.6451 35.445 49.4338 35.5338C49.2176 35.6226 48.9851 35.6682 48.7513 35.667C48.5184 35.6704 48.2868 35.6313 48.0676 35.5515C47.8713 35.48 47.6921 35.3672 47.5417 35.2206C47.3914 35.0739 47.2733 34.8967 47.1951 34.7005C47.1113 34.4849 47.0701 34.2566 47.0713 34.0245C47.0713 33.7962 47.1101 33.5831 47.1913 33.3815C47.2663 33.1874 47.3788 33.0111 47.5226 32.8615C47.6711 32.7085 47.8482 32.5872 48.0435 32.5047C48.2389 32.4222 48.4485 32.38 48.6601 32.3808C48.9101 32.3821 49.1426 32.4138 49.3538 32.4772C49.5651 32.5406 49.7438 32.6471 49.8913 32.7955L49.6351 33.2369C49.5107 33.123 49.3642 33.0366 49.2051 32.9832C49.0541 32.9335 48.8963 32.9083 48.7376 32.9084C48.5939 32.9084 48.4518 32.9375 48.3194 32.9941C48.1871 33.0508 48.0673 33.1337 47.9671 33.2381C47.8669 33.3425 47.7883 33.4662 47.736 33.602C47.6837 33.7377 47.6587 33.8826 47.6626 34.0283C47.6608 34.1802 47.6895 34.3309 47.7471 34.4711C47.8048 34.6114 47.89 34.7382 47.9976 34.8438C48.1001 34.9434 48.2224 35.0195 48.3563 35.0671C48.4963 35.1203 48.6438 35.1457 48.7938 35.1444C48.9838 35.1444 49.1563 35.1064 49.3038 35.0303C49.4501 34.9592 49.5813 34.8603 49.6913 34.7386L49.9551 35.1406ZM50.6801 35.5934V32.448H51.2376V34.7918L53.0463 32.4493H53.6026V35.5934H53.0463V33.2509L51.2376 35.5934H50.6801ZM57.2888 35.1406C57.1513 35.3156 56.9726 35.4501 56.7688 35.5338C56.5513 35.6226 56.3188 35.6682 56.0851 35.667C55.8526 35.6703 55.6214 35.6313 55.4026 35.5515C55.206 35.4802 55.0266 35.3674 54.876 35.2208C54.7255 35.0741 54.6071 34.8968 54.5288 34.7005C54.4451 34.4849 54.4038 34.2566 54.4051 34.0245C54.4051 33.7962 54.4451 33.5831 54.5251 33.3815C54.6026 33.1798 54.7151 33.0073 54.8563 32.8615C54.9999 32.7144 55.1695 32.5961 55.3563 32.5127C55.5563 32.4239 55.7738 32.3783 55.9938 32.3821C56.2438 32.3821 56.4763 32.4138 56.6876 32.4772C56.8988 32.5406 57.0776 32.6471 57.2251 32.7955L56.9688 33.2369C56.8445 33.1228 56.698 33.0364 56.5388 32.9832C56.3878 32.9336 56.2301 32.9083 56.0713 32.9084C55.8611 32.907 55.6551 32.9689 55.4795 33.0863C55.304 33.2037 55.1667 33.3713 55.0851 33.5679C55.0242 33.7134 54.9944 33.8703 54.9976 34.0283C54.9955 34.1802 55.024 34.3308 55.0814 34.4711C55.1388 34.6113 55.2238 34.7382 55.3313 34.8438C55.4342 34.9435 55.557 35.0196 55.6913 35.0671C55.8288 35.1165 55.9726 35.1444 56.1276 35.1444C56.3176 35.1444 56.4863 35.1064 56.6376 35.0303C56.7838 34.9592 56.9151 34.8603 57.0251 34.7386L57.2888 35.1406ZM57.5751 32.4493H60.4301V33.0073H59.2826V35.5934H58.7251V33.0073H57.5776V32.4493H57.5751Z" fill="#F4F4F4"/>
<path fill-rule="evenodd" clip-rule="evenodd" d="M63.0287 35.5617C63.24 35.4944 63.4187 35.3917 63.5737 35.2509L63.405 34.8121C63.2849 34.9139 63.1477 34.993 63 35.0455C62.835 35.1089 62.6475 35.1406 62.4437 35.1406C62.1698 35.152 61.9006 35.0648 61.6837 34.8945C61.4837 34.7271 61.3737 34.495 61.3487 34.197H63.7575C63.7825 34.0739 63.795 33.9471 63.7925 33.8203C63.7956 33.6263 63.7595 33.4337 63.6864 33.2544C63.6133 33.0751 63.5048 32.9129 63.3675 32.7778C63.233 32.6494 63.0744 32.5498 62.9012 32.4848C62.4935 32.3373 62.0466 32.3463 61.645 32.5101C61.4566 32.5889 61.2865 32.7069 61.1459 32.8566C61.0053 33.0062 60.8972 33.1842 60.8287 33.3789C60.7537 33.5844 60.7162 33.8025 60.7187 34.0207C60.7187 34.2693 60.7612 34.495 60.8387 34.6967C60.9137 34.892 61.0287 35.0683 61.1762 35.2154C61.3212 35.36 61.4962 35.4691 61.705 35.5477C62.1337 35.6965 62.597 35.7014 63.0287 35.5617ZM61.62 33.1418C61.7925 32.9832 62.0212 32.9046 62.31 32.9046C62.5812 32.9046 62.8 32.9794 62.9587 33.1278C63.1162 33.2762 63.2012 33.4817 63.215 33.7429H61.3137C61.3405 33.5115 61.4494 33.2978 61.62 33.1418Z" fill="#F4F4F4"/>
<path d="M64.5501 32.4493H65.0563L66.2601 34.0067L67.4013 32.4493H67.8938V35.5934H67.3388V33.3003L66.2538 34.7588H66.2326L65.1063 33.3003V35.5934H64.5488V32.448L64.5501 32.4493Z" fill="#F4F4F4"/>
<path fill-rule="evenodd" clip-rule="evenodd" d="M69.4075 32.4594C69.2388 32.5051 69.0775 32.5736 68.9288 32.6674L69.0775 33.1139C69.2009 33.0522 69.3278 32.998 69.4575 32.9515C69.5838 32.9046 69.745 32.883 69.94 32.883C70.095 32.883 70.2175 32.9084 70.3125 32.9579C70.4027 33.0014 70.4776 33.0718 70.5275 33.1595C70.5775 33.2445 70.6088 33.3498 70.6275 33.4741C70.6438 33.5971 70.6513 33.7315 70.6513 33.8761C70.5374 33.7959 70.4078 33.7418 70.2713 33.7176C70.1391 33.6906 70.0048 33.6762 69.87 33.6745C69.7038 33.6745 69.5488 33.6998 69.4013 33.7417C69.2639 33.7781 69.1354 33.8428 69.0238 33.9319C68.9196 34.0168 68.8354 34.1243 68.7775 34.2465C68.7154 34.3805 68.6842 34.5271 68.6863 34.6751C68.6863 34.9821 68.7738 35.2218 68.95 35.3917C69.1263 35.5617 69.3588 35.6454 69.6475 35.6454C69.9075 35.6454 70.1163 35.5997 70.2738 35.5084C70.4325 35.4158 70.5588 35.3106 70.6513 35.1913V35.5972H71.1725V33.6681C71.1725 33.2585 71.085 32.9401 70.905 32.7169C70.7288 32.4949 70.415 32.3821 69.9713 32.3821C69.7738 32.3821 69.5863 32.41 69.4075 32.4594ZM70.3375 35.0074C70.1899 35.1034 70.0163 35.15 69.8413 35.1406C69.6901 35.1499 69.5409 35.102 69.4225 35.0062C69.3737 34.9605 69.3352 34.9047 69.3098 34.8425C69.2843 34.7803 69.2724 34.7133 69.275 34.646C69.275 34.5572 69.2925 34.4836 69.3313 34.4177C69.369 34.3528 69.4202 34.297 69.4813 34.2541C69.5472 34.2096 69.6204 34.1774 69.6975 34.1589C69.7779 34.1377 69.8607 34.1271 69.9438 34.1272C70.1942 34.1187 70.4408 34.1915 70.6475 34.3352V34.7347C70.5561 34.8387 70.4519 34.9304 70.3375 35.0074ZM76.0838 31.3433C76.2099 31.2807 76.319 31.1875 76.4013 31.0719L76.0975 30.6306C76.0321 30.727 75.9411 30.8027 75.835 30.8487C75.73 30.8907 75.6212 30.9217 75.51 30.9413L75.405 30.9603L75.1088 31.011C74.9391 31.0432 74.7738 31.0955 74.6163 31.167C74.3663 31.2761 74.1663 31.4245 74.0138 31.6109C73.8606 31.7998 73.7413 32.0144 73.6613 32.2451C73.5788 32.481 73.5238 32.727 73.4963 32.9756C73.4675 33.2293 73.4538 33.4741 73.4538 33.7062C73.4538 34.0068 73.4925 34.2794 73.57 34.5229C73.6475 34.7665 73.7575 34.9719 73.9013 35.1368C74.045 35.3068 74.2175 35.4348 74.4225 35.5262C74.6263 35.6175 74.855 35.6631 75.1125 35.6631C75.3475 35.6631 75.5663 35.6175 75.7625 35.5325C76.0492 35.4094 76.2934 35.2026 76.4641 34.9384C76.6348 34.6742 76.7243 34.3645 76.7213 34.0486C76.7234 33.8303 76.6887 33.6133 76.6188 33.4068C76.5602 33.2243 76.4626 33.057 76.3329 32.9172C76.2033 32.7773 76.0448 32.6682 75.8688 32.5977C75.5514 32.4705 75.2024 32.4497 74.8725 32.5381C74.6299 32.6082 74.4086 32.739 74.2288 32.9186C74.1434 33.0057 74.074 33.1074 74.0238 33.2191H74.01C74.0205 33.07 74.0405 32.9217 74.07 32.7752C74.1013 32.623 74.1475 32.4772 74.2075 32.3402C74.2675 32.202 74.345 32.0777 74.44 31.9648C74.5419 31.8508 74.6668 31.7603 74.8063 31.6997C74.9588 31.6262 75.1213 31.5729 75.2888 31.5412L75.3988 31.5209C75.5088 31.5006 75.6138 31.4816 75.7138 31.46C75.8488 31.4321 75.9713 31.3966 76.0838 31.3433ZM74.1263 34.3644C74.0717 34.1859 74.0455 33.9996 74.0488 33.8127C74.0725 33.7053 74.1157 33.6034 74.1763 33.5121C74.2383 33.4154 74.3156 33.3297 74.405 33.2585C74.6113 33.0936 74.8675 33.0048 75.13 33.0073C75.4575 33.0073 75.7038 33.1088 75.8763 33.3117C76.0522 33.5262 76.1438 33.799 76.1338 34.0778C76.1338 34.23 76.105 34.3682 76.0563 34.495C76.0086 34.62 75.9366 34.7341 75.8448 34.8304C75.7529 34.9266 75.6429 35.0032 75.5213 35.0556C75.3887 35.1136 75.2456 35.1426 75.1013 35.1406C74.956 35.1425 74.8123 35.111 74.6807 35.0487C74.5491 34.9863 74.4331 34.8946 74.3413 34.7804C74.2458 34.6558 74.173 34.5149 74.1263 34.3644ZM80.9888 32.4493H80.4325V35.5934H80.9888V32.4493ZM77.5238 32.4493H78.08V33.3929H78.595C78.8375 33.3929 79.0338 33.4246 79.1925 33.4842C79.3356 33.5349 79.4658 33.6172 79.5738 33.7252C79.6688 33.8241 79.7363 33.9408 79.7738 34.0702C79.8125 34.2008 79.8338 34.3365 79.8338 34.476C79.8347 34.6158 79.8123 34.7547 79.7675 34.8869C79.7234 35.0207 79.6499 35.1426 79.5525 35.2433C79.4396 35.3588 79.3018 35.4461 79.15 35.4983C78.9511 35.5679 78.7416 35.6014 78.5313 35.5972H77.52V32.4493H77.5238ZM78.08 33.918V35.0708H78.485C78.7638 35.0708 78.96 35.0201 79.0725 34.9212C79.1863 34.8223 79.2425 34.6815 79.2425 34.495C79.2425 34.3035 79.1825 34.1589 79.07 34.06C78.9538 33.9611 78.76 33.9116 78.4925 33.9116H78.08V33.918Z" fill="#F4F4F4"/>
<path d="M84.6688 35.1406C84.5338 35.3144 84.3588 35.445 84.1463 35.5338C83.93 35.6225 83.6988 35.6682 83.4638 35.6669C83.2313 35.6703 83.0001 35.6312 82.7813 35.5515C82.5849 35.4798 82.4057 35.3669 82.2552 35.2203C82.1046 35.0737 81.9862 34.8966 81.9075 34.7005C81.8238 34.4849 81.7825 34.2566 81.785 34.0245C81.7818 33.5929 81.943 33.1766 82.235 32.8627C82.3763 32.7143 82.545 32.6015 82.735 32.5127C82.935 32.4239 83.1525 32.3783 83.3725 32.3821C83.6225 32.3821 83.855 32.4138 84.0663 32.4772C84.2775 32.5406 84.4575 32.6471 84.6038 32.7955L84.3475 33.2369C84.2231 33.1229 84.0767 33.0366 83.9175 32.9832C83.7665 32.9335 83.6088 32.9083 83.45 32.9084C83.3065 32.9089 83.1646 32.9384 83.0325 32.9952C82.9004 33.052 82.7808 33.135 82.6807 33.2393C82.5806 33.3435 82.502 33.467 82.4495 33.6025C82.397 33.738 82.3717 33.8828 82.375 34.0283C82.3731 34.1802 82.4018 34.331 82.4594 34.4712C82.517 34.6115 82.6023 34.7383 82.71 34.8438C82.8129 34.9435 82.9356 35.0197 83.07 35.067C83.2075 35.1165 83.3513 35.1444 83.5063 35.1444C83.6826 35.1464 83.8571 35.1073 84.0163 35.0303C84.1638 34.9592 84.295 34.8603 84.4038 34.7385L84.6688 35.1406ZM84.9538 32.4493H87.8088V33.0073H86.6613V35.5934H86.105V33.0073H84.9575V32.4493H84.9538Z" fill="#F4F4F4"/>
<path fill-rule="evenodd" clip-rule="evenodd" d="M88.9712 32.4493H88.4137V36.9923H88.9712V35.4488C89.0837 35.5223 89.2174 35.5756 89.3712 35.6111C89.5262 35.6466 89.6887 35.6631 89.8537 35.6631C90.1012 35.6631 90.3224 35.6175 90.5237 35.5338C90.7175 35.4516 90.8926 35.3298 91.038 35.176C91.1834 35.0221 91.2959 34.8396 91.3687 34.6396C91.447 34.4262 91.4864 34.2002 91.4849 33.9725C91.4869 33.7534 91.4522 33.5355 91.3824 33.3282C91.3193 33.1437 91.2212 32.9735 91.0937 32.8272C90.9683 32.6844 90.8128 32.5721 90.6387 32.4987C90.4489 32.4159 90.244 32.3749 90.0374 32.3782C89.8187 32.3782 89.6149 32.4214 89.4212 32.5051C89.2492 32.573 89.0951 32.6807 88.9712 32.8196V32.4493ZM89.3587 33.0327C89.5182 32.9477 89.696 32.9041 89.8762 32.9059C90.0387 32.9059 90.1824 32.93 90.3124 32.982C90.434 33.0342 90.543 33.1124 90.6323 33.211C90.7216 33.3097 90.789 33.4266 90.8299 33.554C90.8762 33.6897 90.8974 33.8342 90.8974 33.9928C90.8974 34.1627 90.8687 34.3149 90.8199 34.4557C90.774 34.5893 90.7006 34.7115 90.6047 34.8142C90.5089 34.917 90.3926 34.9979 90.2637 35.0518C90.1198 35.1132 89.9648 35.1434 89.8087 35.1406C89.6587 35.1406 89.5162 35.1241 89.3837 35.0886C89.2369 35.0485 89.0975 34.9842 88.9712 34.8983V33.3383C89.0699 33.2191 89.1999 33.1177 89.3587 33.0327ZM95.7524 32.4493H95.1949V35.5934H95.7512V32.448L95.7524 32.4493ZM92.2837 32.4493H92.8399V33.3929H93.3537C93.5974 33.3929 93.7937 33.4246 93.9537 33.4842C94.0959 33.5352 94.2253 33.6175 94.3324 33.7252C94.4274 33.8241 94.4949 33.9408 94.5324 34.0701C94.5724 34.2008 94.5937 34.3365 94.5937 34.476C94.5943 34.6159 94.5714 34.7548 94.5262 34.8869C94.4822 35.0208 94.4086 35.1426 94.3112 35.2433C94.199 35.3584 94.0621 35.4457 93.9112 35.4982C93.7119 35.5681 93.502 35.6016 93.2912 35.5972H92.2799V32.4493H92.2837ZM92.8437 33.918V35.0708H93.2487C93.5262 35.0708 93.7237 35.0201 93.8362 34.9212C93.9487 34.8222 94.0062 34.6815 94.0062 34.495C94.0062 34.3035 93.9462 34.1589 93.8337 34.06C93.7174 33.9611 93.5237 33.9116 93.2562 33.9116H92.8437V33.918Z" fill="#F4F4F4"/>
<path d="M98.4213 33.9649L99.6113 35.5934H98.9275L98.0088 34.3213L97.0763 35.5934H96.4275L97.6113 33.9928L96.4988 32.4493H97.1813L98.0313 33.6364L98.8925 32.4493H99.54L98.4213 33.9649ZM49.5438 39.4794H47.8363V42.0997H47.28V38.9569H50.1V42.0997H49.5438V39.4794ZM53.2575 39.5137H52.1588L52.1238 40.0438C52.0863 40.4928 52.0325 40.853 51.9588 41.1282C51.8838 41.4047 51.7925 41.6165 51.6875 41.7649C51.5978 41.9012 51.4685 42.0059 51.3175 42.0642C51.1725 42.1187 51.0175 42.1454 50.8638 42.1428L50.8213 41.5975C50.8929 41.5996 50.9641 41.5844 51.0288 41.5531C51.1249 41.5 51.2042 41.4204 51.2575 41.3235C51.3471 41.1638 51.4144 40.9922 51.4575 40.8137C51.5188 40.5917 51.5575 40.3025 51.5788 39.9385L51.635 38.9594H53.8138V42.1035H53.2575V39.5137Z" fill="#F4F4F4"/>
<path fill-rule="evenodd" clip-rule="evenodd" d="M55.3137 38.9632C55.1447 39.0078 54.9833 39.0779 54.8349 39.1712L54.9837 39.6164C55.1099 39.553 55.2374 39.4997 55.3624 39.4541C55.4899 39.4084 55.6524 39.3868 55.8449 39.3868C56.0012 39.3868 56.1237 39.4122 56.2199 39.4617C56.3096 39.5055 56.3841 39.5758 56.4337 39.6633C56.4837 39.7483 56.5149 39.8536 56.5324 39.9766C56.5499 40.1009 56.5574 40.2353 56.5574 40.3799C56.4433 40.2995 56.3132 40.2454 56.1762 40.2214C56.0444 40.1946 55.9105 40.1802 55.7762 40.1783C55.6099 40.1783 55.4549 40.2036 55.3074 40.2455C55.17 40.2818 55.0415 40.3466 54.9299 40.4357C54.8204 40.5243 54.7329 40.6376 54.6743 40.7667C54.6157 40.8958 54.5877 41.0369 54.5924 41.1789C54.5924 41.4859 54.6799 41.7256 54.8562 41.8955C55.0312 42.0642 55.2649 42.1492 55.5537 42.1492C55.8137 42.1492 56.0212 42.1035 56.1799 42.0122C56.3387 41.9196 56.4649 41.8144 56.5562 41.6939V42.0997H57.0787V40.1719C57.0787 39.7623 56.9899 39.4439 56.8099 39.2207C56.6349 38.9987 56.3212 38.8859 55.8774 38.8859C55.6874 38.8859 55.4962 38.9125 55.3137 38.9632ZM56.2474 41.51C56.1002 41.6068 55.9265 41.6539 55.7512 41.6444C55.5999 41.6544 55.4505 41.6064 55.3324 41.51C55.2834 41.4644 55.2447 41.4086 55.219 41.3465C55.1934 41.2843 55.1813 41.2172 55.1837 41.1498C55.1837 41.061 55.2012 40.9874 55.2412 40.9215C55.2787 40.856 55.3299 40.7998 55.3912 40.7566C55.4568 40.7126 55.5296 40.6808 55.6062 40.6627C55.6866 40.6416 55.7694 40.6309 55.8524 40.631C56.1274 40.631 56.3637 40.6983 56.5574 40.839V41.2373C56.466 41.3412 56.3618 41.4329 56.2474 41.51Z" fill="#F4F4F4"/>
<path d="M57.6238 38.9568H60.4788V39.5149H59.3313V42.0997H58.775V39.5149H57.6275V38.9568H57.6238Z" fill="#F4F4F4"/>
<path fill-rule="evenodd" clip-rule="evenodd" d="M63.0775 42.0693C63.29 42.0008 63.4687 41.8981 63.6237 41.7573L63.4537 41.3197C63.334 41.4215 63.1973 41.5005 63.05 41.5531C62.8837 41.6165 62.6975 41.6482 62.4937 41.6482C62.2191 41.6595 61.9495 41.5719 61.7325 41.4009C61.5325 41.236 61.4225 41.0014 61.3987 40.7046H63.8062C63.8312 40.5955 63.8425 40.4712 63.8425 40.3266C63.8448 40.1327 63.8081 39.9403 63.7346 39.7612C63.6611 39.5822 63.5523 39.4203 63.415 39.2854C63.2814 39.1567 63.1237 39.0567 62.9512 38.9911C62.5434 38.8439 62.0966 38.8529 61.695 39.0165C61.5065 39.0955 61.3365 39.2136 61.1957 39.3632C61.0549 39.5128 60.9465 39.6907 60.8775 39.8853C60.8025 40.0907 60.765 40.3089 60.7675 40.5283C60.7675 40.7756 60.81 41.0014 60.8875 41.203C60.965 41.4047 61.0812 41.5772 61.225 41.723C61.375 41.8702 61.5562 41.983 61.7537 42.0541C62.1825 42.2028 62.647 42.2077 63.0787 42.068L63.0775 42.0693ZM61.665 39.6456C61.8387 39.4858 62.0675 39.4084 62.3562 39.4084C62.6312 39.4084 62.8462 39.4858 63.0037 39.6304C63.1625 39.78 63.2462 39.9842 63.2612 40.2455H61.36C61.3869 40.0144 61.4945 39.8012 61.665 39.6456ZM64.1125 38.9569H64.8175L65.8912 40.4725L64.7425 42.0997H64.06L65.2637 40.4712L64.1125 38.9569ZM66.0275 38.9569H66.585V42.0997H66.0275V38.9569ZM68.5737 42.0997L67.3487 40.4712L68.4925 38.9556H67.8025L66.7212 40.4712L67.8837 42.0997H68.5737ZM71.1162 42.068C71.3275 42.0008 71.5062 41.8981 71.6612 41.7573L71.4925 41.3197C71.3724 41.4216 71.2352 41.5006 71.0874 41.5531C70.9093 41.6188 70.7208 41.651 70.5312 41.6482C70.2571 41.6592 69.9879 41.5717 69.7712 41.4009C69.5712 41.236 69.4612 41.0014 69.4362 40.7046H71.845C71.87 40.5955 71.88 40.4712 71.88 40.3266C71.883 40.1328 71.8469 39.9404 71.7738 39.7613C71.7007 39.5822 71.5922 39.4202 71.455 39.2854C71.3206 39.1565 71.162 39.0564 70.9887 38.9911C70.5809 38.844 70.1342 38.853 69.7325 39.0165C69.5439 39.095 69.3737 39.2129 69.233 39.3626C69.0924 39.5123 68.9844 39.6904 68.9162 39.8853C68.8412 40.0907 68.8037 40.3089 68.8062 40.5283C68.8062 40.7756 68.8487 41.0014 68.9262 41.203C69.0037 41.4047 69.12 41.5772 69.2637 41.723C69.4087 41.8676 69.5837 41.9767 69.7925 42.0541C70.2212 42.203 70.6845 42.2078 71.1162 42.068ZM69.7037 39.6456C69.8775 39.4858 70.1062 39.4084 70.395 39.4084C70.6662 39.4084 70.8825 39.4858 71.0424 39.6304C71.2012 39.78 71.285 39.9842 71.2987 40.2455H69.3987C69.4255 40.0146 69.5338 39.8015 69.7037 39.6456ZM74.1375 37.9004C73.81 37.9004 73.63 37.7165 73.6025 37.3487H73.0775C73.0775 37.4895 73.1025 37.6176 73.1475 37.7381C73.1909 37.8542 73.2592 37.959 73.3475 38.045C73.4362 38.13 73.55 38.1972 73.68 38.2492C73.8249 38.3046 73.9789 38.3312 74.1337 38.3278C74.4098 38.332 74.6774 38.2311 74.8837 38.045C74.9734 37.9586 75.0441 37.854 75.0912 37.7381C75.1418 37.6147 75.1673 37.4823 75.1662 37.3487H74.6437C74.6187 37.7165 74.4462 37.9004 74.1375 37.9004ZM72.6337 38.9556V42.101H73.1899L75 39.7572V42.0985H75.5562V38.9544H75L73.1899 41.2969V38.9544L72.6337 38.9556Z" fill="#F4F4F4"/>
</g>
</svg>
