<svg width="101" height="50" viewBox="0 0 101 50" fill="none" xmlns="http://www.w3.org/2000/svg">
<g clip-path="url(#clip0_24_2895)">
<path fill-rule="evenodd" clip-rule="evenodd" d="M23.1264 29.549C23.7915 29.5449 25.768 29.3657 26.6053 32.2118C27.1692 34.1292 28.0676 37.2698 29.3003 41.6337H29.8024C31.1244 37.033 32.0325 33.8923 32.5269 32.2118C33.3729 29.336 35.4877 29.549 36.3336 29.549H42.8603V50H36.2081V37.9479H35.762L32.0538 50H27.0489L23.3406 37.939H22.8946V50H16.2424V29.549H23.1264ZM52.4126 29.549V41.61H52.9433L57.4539 31.6923C58.3296 29.7186 60.1958 29.549 60.1958 29.549H66.6331V50H59.842V37.939H59.3113L54.889 47.8567C54.0135 49.8213 52.0587 50 52.0587 50H45.6215V29.549H52.4126ZM90.1061 39.2674C89.1588 41.9715 86.1839 43.9079 82.8903 43.9079H75.7685V50H69.3107V39.2674H90.1061Z" fill="#0F754E"/>
<path fill-rule="evenodd" clip-rule="evenodd" d="M83.8011 29.5455H69.6516C69.9883 33.8312 73.8589 37.5 77.8659 37.5H91.1126C91.8771 33.9381 89.2455 29.5455 83.8011 29.5455Z" fill="url(#paint0_linear_24_2895)"/>
<path d="M23.3334 2H11.3334V18H23.3334V2Z" fill="#FF5F00"/>
<path d="M12.4976 10.2273C12.4976 6.96025 13.9736 4.06252 16.2425 2.18751C14.575 0.823869 12.4702 0 10.1741 0C4.73435 0 0.333374 4.57387 0.333374 10.2273C0.333374 15.8807 4.73435 20.4545 10.1741 20.4545C12.4702 20.4545 14.575 19.6307 16.2425 18.2672C13.9736 16.4205 12.4976 13.4944 12.4976 10.2273Z" fill="#EB001B"/>
<path d="M32.1515 10.2273C32.1515 15.8807 27.7506 20.4545 22.3108 20.4545C20.0147 20.4545 17.9099 19.6307 16.2424 18.267C18.5385 16.3921 19.9873 13.4943 19.9873 10.2273C19.9873 6.96024 18.5113 4.06251 16.2424 2.1875C17.9099 0.823868 20.0147 0 22.3108 0C27.7506 0 32.1515 4.60228 32.1515 10.2273Z" fill="#F79E1B"/>
<path d="M68.1645 19.3182H63.9697L66.5935 2.27271H70.7879L68.1645 19.3182Z" fill="#F4F4F4"/>
<path d="M84.4243 1.88567C83.5277 1.52955 82.1055 1.13635 80.347 1.13635C75.8579 1.13635 72.6967 3.53289 72.6772 6.95922C72.64 9.48715 74.9406 10.8912 76.6613 11.7341C78.4201 12.5954 79.0179 13.1576 79.0179 13.9253C79.0001 15.1045 77.5968 15.6479 76.288 15.6479C74.473 15.6479 73.5005 15.3678 72.0228 14.7118L71.4242 14.4305L70.788 18.3814C71.8542 18.8677 73.8185 19.2992 75.8579 19.3182C80.6278 19.3182 83.7331 16.9587 83.7699 13.3074C83.788 11.3038 82.5731 9.76861 79.954 8.5141C78.3641 7.70879 77.3904 7.16577 77.3904 6.34179C77.409 5.59271 78.2139 4.82547 80.0088 4.82547C81.4866 4.7879 82.5723 5.14352 83.395 5.4994L83.8061 5.68628L84.4243 1.88567Z" fill="#F4F4F4"/>
<path d="M91.2838 13.2797C91.6489 12.3005 93.054 8.51048 93.054 8.51048C93.0355 8.54687 93.4183 7.51316 93.6373 6.87855L93.9471 8.34731C93.9471 8.34731 94.7867 12.4275 94.9691 13.2797C94.2761 13.2797 92.1596 13.2797 91.2838 13.2797ZM96.7566 2.27271H93.3271C92.2697 2.27271 91.4662 2.58072 91.0099 3.68699L84.4243 19.3182H89.0763C89.0763 19.3182 89.8423 17.2143 90.0069 16.7612C90.5172 16.7612 95.0427 16.7612 95.6993 16.7612C95.8266 17.3597 96.2284 19.3182 96.2284 19.3182H100.333L96.7566 2.27271Z" fill="#F4F4F4"/>
<path d="M60.3356 2.27271L55.9173 13.9084L55.4345 11.5486C54.6177 8.82559 52.0559 5.86715 49.197 4.39613L53.244 19.3182H58.0148L65.1061 2.27271H60.3356Z" fill="#F4F4F4"/>
<path d="M51.6978 2H44.408L44.3334 2.33452C50.0199 3.70842 53.786 7.01945 55.3334 11L53.7487 3.3917C53.4877 2.33429 52.6859 2.03488 51.6978 2Z" fill="#F4F4F4"/>
</g>
<defs>
<linearGradient id="paint0_linear_24_2895" x1="91.2425" y1="34.5492" x2="69.6516" y2="34.5492" gradientUnits="userSpaceOnUse">
<stop stop-color="#1F5CD7"/>
<stop offset="1" stop-color="#02AEFF"/>
</linearGradient>
<clipPath id="clip0_24_2895">
<rect width="100" height="50" fill="white" transform="translate(0.333374)"/>
</clipPath>
</defs>
</svg>
